<?xml version="1.0" encoding="utf-8"?>
<!-- Generator: Adobe Illustrator 15.1.0, SVG Export Plug-In . SVG Version: 6.00 Build 0)  -->
<!DOCTYPE svg PUBLIC "-//W3C//DTD SVG 1.1//EN" "http://www.w3.org/Graphics/SVG/1.1/DTD/svg11.dtd">
<svg version="1.1" id="圖層_1" xmlns="http://www.w3.org/2000/svg" xmlns:xlink="http://www.w3.org/1999/xlink" x="0px" y="0px"
	 width="73px" height="91px" viewBox="0 0 73 91" enable-background="new 0 0 73 91" xml:space="preserve">
<g>
	<g>
		<g>
			<path fill="#3F51B5" d="M9.77,83.623c0.023-0.338,0.059-2.307,0.059-3.635v-1.234c0-1.014-0.059-3.251-0.059-3.518h1.165
				c-0.011,0.186-0.058,2.387-0.058,3.401v1.258c0,0.897,0.034,3.507,0.058,3.728H9.77z M15.083,83.554
				c-0.116-0.163-3.623-3.774-4.125-4.334c0.199-0.187,3.53-3.472,3.799-3.774l0.676,0.769c-0.442,0.419-2.552,2.307-3.169,2.925
				c0.36,0.442,3.146,3.168,3.588,3.6L15.083,83.554z"/>
			<path fill="#3F51B5" d="M15.055,83.962l-0.181-0.254c-0.093-0.115-1.09-1.153-1.971-2.07c-0.663-0.69-1.341-1.396-1.767-1.845
				v0.103c0,0.98,0.037,3.507,0.057,3.7l0.031,0.288H9.491l0.02-0.278c0.023-0.338,0.058-2.301,0.058-3.617v-1.234
				c0-0.668-0.025-1.87-0.042-2.686c-0.01-0.422-0.017-0.741-0.017-0.832v-0.261h1.702l-0.018,0.276
				c-0.011,0.182-0.058,2.393-0.058,3.386v0.044c0.906-0.889,3.203-3.158,3.426-3.409l0.195-0.22l1.035,1.178l-0.182,0.172
				c-0.157,0.149-0.523,0.482-0.958,0.877c-0.706,0.643-1.563,1.422-2.03,1.871c0.632,0.678,2.653,2.665,3.41,3.402l0.183,0.178
				L15.055,83.962z M10.041,83.363h0.623c-0.022-0.764-0.047-2.75-0.047-3.468v-1.258c0-0.848,0.031-2.48,0.05-3.142h-0.634
				c0.003,0.146,0.008,0.339,0.013,0.562c0.018,0.819,0.043,2.024,0.043,2.696v1.234C10.089,81.104,10.063,82.686,10.041,83.363z
				 M11.32,79.229c0.38,0.406,1.18,1.239,1.957,2.048c1.006,1.047,1.546,1.611,1.81,1.893l0.4-0.424
				c-0.686-0.671-3.077-3.018-3.426-3.443l-0.148-0.182l0.167-0.166c0.403-0.404,1.413-1.322,2.224-2.06
				c0.307-0.279,0.578-0.526,0.767-0.7l-0.322-0.365C14.062,76.53,11.968,78.597,11.32,79.229z"/>
		</g>
		<g>
			<path fill="#3F51B5" d="M21.376,80.514c0,0.99,0.035,2.761,0.047,2.993h-1.095c0.023-0.431,0.034-2.749,0.034-3.005V79.43
				c0-0.176-0.034-2.621-0.058-2.854h1.13c-0.023,0.175-0.059,1.678-0.059,2.866V80.514z"/>
			<path fill="#3F51B5" d="M21.696,83.768h-1.643l0.015-0.275c0.023-0.426,0.034-2.729,0.034-2.99V79.43
				c0-0.219-0.036-2.623-0.057-2.829l-0.027-0.285h1.713l-0.039,0.294c-0.021,0.149-0.056,1.634-0.056,2.832v1.072
				c0,0.992,0.034,2.752,0.045,2.98L21.696,83.768z M20.596,83.247h0.56c-0.016-0.591-0.039-1.92-0.039-2.733v-1.072
				c0-0.887,0.021-2.053,0.043-2.605h-0.583c0.022,0.724,0.046,2.488,0.046,2.594v1.072C20.622,80.729,20.614,82.49,20.596,83.247z"
				/>
		</g>
		<g>
			<path fill="#3F51B5" d="M26.201,76.389c0.594,0.059,5.51,0.232,5.674,0.232v0.023c-0.385,0.502-4.486,6.035-4.579,6.164
				c0.57,0,4.066-0.035,4.311-0.07l-0.035,0.875c-0.222,0-5.464-0.106-5.965-0.106v-0.022c0.442-0.467,4.427-5.885,4.66-6.198
				c-0.407,0-3.914-0.047-4.112-0.047L26.201,76.389z"/>
			<path fill="#3F51B5" d="M31.821,83.873h-0.25c-0.088,0-0.979-0.018-2.048-0.037c-1.612-0.031-3.618-0.068-3.917-0.068h-0.261
				v-0.364l0.072-0.098c0.143-0.151,0.897-1.103,4.338-5.765c-0.541-0.006-1.391-0.016-2.13-0.024
				c-0.752-0.009-1.391-0.018-1.472-0.018H25.88l0.076-1.396l0.271,0.026c0.568,0.056,5.423,0.231,5.648,0.231l0.26,0.001v0.348
				l-0.054,0.093c-0.335,0.438-3.296,4.431-4.268,5.743c1.166-0.009,3.563-0.039,3.757-0.064l0.306-0.04L31.821,83.873z
				 M26.131,83.254c0.771,0.012,2.196,0.039,3.401,0.063c0.767,0.014,1.439,0.027,1.789,0.033l0.015-0.337
				c-0.949,0.032-3.672,0.056-4.04,0.056h-0.511l0.301-0.413c0.023-0.032,3.257-4.399,4.297-5.788
				c-1.153-0.039-3.974-0.145-4.938-0.201l-0.018,0.316c0.273,0.002,0.715,0.008,1.204,0.014c1.08,0.014,2.395,0.029,2.635,0.029
				h0.516l-0.483,0.654C28.153,80.589,26.757,82.456,26.131,83.254z"/>
		</g>
		<g>
			<path fill="#3F51B5" d="M36.688,78.916c0,1.609,0.093,2.343,0.489,2.995c0.407,0.664,1.001,0.956,1.759,0.956
				c0.908,0,1.433-0.42,1.782-0.945c0.489-0.721,0.501-1.91,0.501-3.471v-0.338c0-0.688-0.046-1.271-0.059-1.644h1.061
				c0,0.222,0.012,0.874,0.012,1.655v0.466c0,1.899-0.14,3.099-0.932,4.019c-0.629,0.723-1.375,1.061-2.505,1.061
				c-0.571,0-1.678-0.082-2.424-1.188c-0.489-0.734-0.699-1.516-0.699-3.916v-0.534c0-0.455,0.013-1.178,0.013-1.411h1.048
				c-0.012,0.257-0.046,0.723-0.046,1.632V78.916z"/>
			<path fill="#3F51B5" d="M38.797,83.93c-1.168,0-2.055-0.438-2.639-1.303c-0.505-0.756-0.744-1.556-0.744-4.061v-0.534
				c0-0.267,0.004-0.624,0.008-0.921c0.002-0.211,0.005-0.393,0.005-0.49v-0.26h1.58l-0.021,0.425
				c-0.014,0.27-0.038,0.72-0.038,1.467v0.663c0,1.641,0.102,2.282,0.451,2.859c0.348,0.566,0.837,0.831,1.537,0.831
				c0.692,0,1.189-0.263,1.566-0.828c0.457-0.675,0.457-1.904,0.457-3.327v-0.338c0-0.464-0.021-0.879-0.038-1.213
				c-0.01-0.16-0.017-0.303-0.021-0.422l-0.008-0.269h1.588l0.003,0.632c0.005,0.316,0.009,0.772,0.009,1.283v0.466
				c0,1.968-0.158,3.218-0.995,4.188C40.806,83.576,39.973,83.93,38.797,83.93z M35.944,76.881c0,0.072-0.001,0.152-0.002,0.236
				c-0.005,0.295-0.009,0.65-0.009,0.915v0.534c0,2.371,0.212,3.105,0.656,3.771c0.724,1.072,1.84,1.072,2.207,1.072
				c1.025,0,1.716-0.29,2.309-0.971c0.733-0.853,0.868-1.965,0.868-3.849v-0.466c0-0.509-0.005-0.963-0.009-1.277l-0.001-0.118
				h-0.53c0.002,0.046,0.004,0.094,0.007,0.144c0.018,0.342,0.039,0.766,0.039,1.24v0.338c0,1.509,0,2.812-0.546,3.617
				c-0.474,0.711-1.128,1.059-1.997,1.059c-0.875,0-1.541-0.363-1.98-1.08c-0.452-0.744-0.528-1.567-0.528-3.131v-0.663
				c0-0.657,0.019-1.089,0.033-1.372H35.944z"/>
		</g>
		<g>
			<path fill="#3F51B5" d="M46.721,83.507c0.059-0.745,0.35-6.303,0.396-7.327h0.058c0.303,0.325,5.162,5.219,5.487,5.533
				c0-0.279,0.023-4.858,0.036-5.184l1.037,0.046c-0.047,0.595-0.245,4.648-0.292,7.142h-0.046
				c-0.304-0.268-5.406-5.359-5.535-5.498h-0.023c0.023,0.186-0.058,5.033-0.046,5.358L46.721,83.507z"/>
			<path fill="#3F51B5" d="M53.697,83.977h-0.398l-0.074-0.064c-0.282-0.25-3.867-3.83-5.123-5.086
				c-0.003,0.484-0.012,1.273-0.027,2.485c-0.013,1.042-0.026,2.119-0.021,2.257l0.011,0.287l-1.622-0.106l0.021-0.263
				c0.059-0.742,0.35-6.326,0.396-7.318l0.012-0.248h0.42l0.077,0.082c0.227,0.244,3.754,3.805,5.039,5.09
				c0.007-1.328,0.022-4.303,0.033-4.572l0.009-0.262l1.568,0.07l-0.021,0.268c-0.049,0.622-0.245,4.697-0.291,7.127L53.697,83.977z
				 M46.998,83.266l0.534,0.033c0.002-0.401,0.013-1.156,0.022-1.994c0.016-1.231,0.037-2.918,0.026-3.06l-0.021-0.28l0.394-0.006
				l0.1,0.082c0.167,0.18,3.914,3.916,5.143,5.121c0.056-2.208,0.201-5.308,0.263-6.339l-0.505-0.022
				c-0.013,1.046-0.031,4.68-0.031,4.912v0.611L52.482,81.9c-0.223-0.215-3.916-3.928-5.132-5.168
				C47.272,78.305,47.072,82.102,46.998,83.266z"/>
		</g>
		<g>
			<path fill="#3F51B5" d="M57.396,83.204c0.56-0.99,3.589-6.595,3.821-6.979h0.023c0.897,1.41,3.414,5.872,4.102,6.909l-0.944,0.57
				c-0.187-0.373-1.281-2.33-1.386-2.504l-3.601,0.139c-0.14,0.314-0.955,2.039-1.118,2.377L57.396,83.204z M62.65,80.49
				c-0.117-0.222-1.34-2.458-1.445-2.621c-0.151,0.232-1.305,2.574-1.397,2.736L62.65,80.49z"/>
			<path fill="#3F51B5" d="M58.405,84.081l-1.363-0.78l0.127-0.225c0.269-0.475,1.104-2.008,1.926-3.519
				c0.913-1.677,1.776-3.261,1.9-3.466l0.076-0.126h0.289l0.1,0.12c0.44,0.692,1.271,2.12,2.074,3.5
				c0.824,1.416,1.676,2.881,2.024,3.404l0.149,0.227l-1.418,0.856l-0.125-0.251c-0.166-0.332-1.027-1.875-1.301-2.355l-3.282,0.127
				c-0.245,0.53-0.92,1.956-1.055,2.236L58.405,84.081z M57.748,83.105l0.431,0.247c0.285-0.599,0.882-1.861,0.995-2.118
				l0.065-0.147l3.915-0.151l0.079,0.131c0.088,0.145,0.913,1.617,1.266,2.273l0.479-0.289c-0.405-0.646-1.131-1.893-1.893-3.203
				c-0.683-1.172-1.385-2.378-1.847-3.133c-0.336,0.609-1.021,1.866-1.688,3.092C58.83,81.131,58.099,82.473,57.748,83.105z
				 M59.348,80.885l0.234-0.408c0.034-0.059,0.212-0.414,0.429-0.85c0.495-0.986,0.882-1.753,0.977-1.9l0.219-0.336l0.217,0.337
				c0.12,0.185,1.387,2.506,1.458,2.642l0.191,0.363L59.348,80.885z M61.211,78.404c-0.204,0.396-0.509,1.004-0.735,1.456
				c-0.086,0.173-0.166,0.333-0.234,0.468l1.982-0.081C61.956,79.756,61.49,78.906,61.211,78.404z"/>
		</g>
	</g>
	<g>
		<g>
			<g>
				<g>
					<line fill="#3F51B5" x1="28.122" y1="19.865" x2="24.622" y2="24.845"/>
					<path fill="#3F51B5" d="M24.621,26.144c-0.258,0-0.519-0.077-0.746-0.236c-0.586-0.413-0.728-1.223-0.315-1.811l3.5-4.98
						c0.413-0.587,1.223-0.727,1.81-0.316c0.588,0.413,0.729,1.223,0.316,1.811l-3.499,4.98
						C25.433,25.952,25.03,26.144,24.621,26.144z"/>
				</g>
				<g>
					<line fill="#3F51B5" x1="34.741" y1="22.203" x2="25.748" y2="34.598"/>
					<path fill="#3F51B5" d="M25.747,35.897c-0.264,0-0.531-0.08-0.762-0.248c-0.581-0.421-0.71-1.234-0.289-1.814l8.993-12.396
						c0.422-0.581,1.234-0.711,1.815-0.289c0.58,0.421,0.709,1.233,0.288,1.814L26.8,35.361
						C26.546,35.712,26.149,35.897,25.747,35.897z"/>
				</g>
				<g>
					<line fill="#3F51B5" x1="22.171" y1="30.811" x2="29.326" y2="40.133"/>
					<path fill="#3F51B5" d="M29.327,41.432c-0.39,0-0.775-0.175-1.031-0.508l-7.155-9.321c-0.438-0.569-0.329-1.385,0.24-1.822
						c0.57-0.436,1.385-0.329,1.821,0.24l7.155,9.321c0.437,0.569,0.329,1.386-0.239,1.822
						C29.881,41.344,29.604,41.432,29.327,41.432z"/>
				</g>
				<g>
					<line fill="#3F51B5" x1="35.054" y1="46.121" x2="40.834" y2="53.652"/>
					<path fill="#3F51B5" d="M40.835,54.952c-0.39,0-0.775-0.175-1.031-0.509l-5.78-7.53c-0.438-0.569-0.33-1.386,0.239-1.822
						c0.571-0.435,1.386-0.329,1.822,0.239l5.78,7.531c0.437,0.57,0.329,1.385-0.239,1.822
						C41.39,54.864,41.111,54.952,40.835,54.952z"/>
				</g>
				<g>
					<path fill="#3F51B5" d="M39.177,66.133c-5.473,0-7.139-0.562-7.417-0.674c-0.664-0.27-0.986-1.027-0.716-1.692
						c0.269-0.665,1.025-0.985,1.691-0.717l0,0c0.004,0,1.497,0.485,6.441,0.485c14.087,0,24.611-13.248,24.611-25.094
						c0-7.864-2.726-14.252-8.579-20.105c-1.319-1.319-2.63-1.923-3.907-1.803c-2.279,0.219-3.931,2.632-3.947,2.657l-6.135,9.148
						c-0.525,0.84-0.65,1.577-0.359,2.22c0.396,0.873,1.391,1.332,1.65,1.387h11.724c0.613,0,1.144-0.311,1.418-0.833
						c0.319-0.604,0.234-1.34-0.231-2.021c-0.078-0.114-0.462-0.638-2.359-3.056c-0.442-0.564-0.345-1.381,0.22-1.824
						c0.563-0.443,1.382-0.345,1.824,0.22c2.157,2.748,2.387,3.084,2.462,3.195c1.012,1.479,1.155,3.236,0.385,4.699
						c-0.724,1.369-2.147,2.219-3.718,2.219H42.469c-0.997,0-2.878-0.901-3.813-2.593c-0.484-0.875-1.078-2.692,0.386-5.026
						l6.155-9.182c0.09-0.136,2.326-3.444,5.835-3.794c2.087-0.206,4.115,0.649,6.015,2.55c6.373,6.371,9.341,13.344,9.341,21.942
						c0,6.384-2.83,13.342-7.571,18.613C53.548,62.908,46.573,66.133,39.177,66.133z"/>
				</g>
				<g>
					<path fill="#3F51B5" d="M33.619,41.432h-4.847c-0.718,0-1.299-0.582-1.299-1.299c0-0.718,0.581-1.3,1.299-1.3h4.847
						c0.056-0.014,0.308-0.154,0.409-0.405c0.153-0.38-0.147-0.89-0.342-1.159c-0.988-1.376-1.37-1.874-1.374-1.879
						c-0.437-0.569-0.33-1.385,0.238-1.822c0.568-0.438,1.385-0.331,1.822,0.238c0.016,0.021,0.402,0.526,1.424,1.947
						c1.283,1.785,0.877,3.216,0.521,3.91C35.784,40.704,34.674,41.432,33.619,41.432z"/>
				</g>
				<g>
					<line fill="#3F51B5" x1="40.661" y1="40.133" x2="57.54" y2="40.133"/>
					<path fill="#3F51B5" d="M57.54,41.432H40.661c-0.718,0-1.3-0.582-1.3-1.299c0-0.718,0.582-1.3,1.3-1.3H57.54
						c0.717,0,1.299,0.582,1.299,1.3C58.839,40.85,58.257,41.432,57.54,41.432z"/>
				</g>
				<g>
					<line fill="#3F51B5" x1="10.791" y1="40.133" x2="20.612" y2="40.133"/>
					<path fill="#3F51B5" d="M20.612,41.432h-9.821c-0.718,0-1.3-0.582-1.3-1.299c0-0.718,0.582-1.3,1.3-1.3h9.821
						c0.718,0,1.299,0.582,1.299,1.3C21.911,40.85,21.33,41.432,20.612,41.432z"/>
				</g>
				<g>
					<line fill="#3F51B5" x1="48.654" y1="56.283" x2="48.654" y2="25.232"/>
					<path fill="#3F51B5" d="M48.654,57.583c-0.718,0-1.3-0.581-1.3-1.3V25.232c0-0.717,0.582-1.299,1.3-1.299
						s1.299,0.582,1.299,1.299v31.051C49.953,57.002,49.372,57.583,48.654,57.583z"/>
				</g>
				<g>
					<path fill="#3F51B5" d="M23.586,61.394c-2.092,0-5.796-2.685-8.808-6.386c-2.228-2.736-5.966-8.42-5.966-15.725
						c0-17.501,11.997-30.204,28.527-30.204c4.228,0,6.359,0.71,6.447,0.74c0.679,0.231,1.042,0.97,0.811,1.649
						c-0.231,0.679-0.97,1.041-1.649,0.811c-0.012-0.004-1.869-0.601-5.608-0.601c-15.024,0-25.929,11.61-25.929,27.605
						c0,11.432,10.151,19.512,12.175,19.512c1.689,0,2.744-0.621,3.32-1.957c0.538-1.245,0.538-2.773,0.538-3.688V40.322
						c0-0.718,0.581-1.299,1.299-1.299s1.3,0.582,1.3,1.299v12.811c0,1.059,0,2.997-0.751,4.736
						C28.598,59.477,27.043,61.394,23.586,61.394z"/>
				</g>
			</g>
		</g>
		<circle fill="#C24728" cx="21.396" cy="47.84" r="2.858"/>
	</g>
</g>
</svg>
