<?xml version="1.0" encoding="utf-8"?>
<!-- Generator: Adobe Illustrator 15.1.0, SVG Export Plug-In . SVG Version: 6.00 Build 0)  -->
<!DOCTYPE svg PUBLIC "-//W3C//DTD SVG 1.1//EN" "http://www.w3.org/Graphics/SVG/1.1/DTD/svg11.dtd">
<svg version="1.1" id="圖層_1" xmlns="http://www.w3.org/2000/svg" xmlns:xlink="http://www.w3.org/1999/xlink" x="0px" y="0px"
	 width="172.117px" height="64.609px" viewBox="0 0 172.117 64.609" enable-background="new 0 0 172.117 64.609"
	 xml:space="preserve">
<g>
	<g>
		<path fill="#3F51B5" stroke="#3F51B5" stroke-width="0.5" stroke-miterlimit="10" d="M60.929,41.807
			c0.034-0.498,0.086-3.403,0.086-5.361v-1.822c0-1.496-0.086-4.795-0.086-5.189h1.719c-0.017,0.274-0.085,3.521-0.085,5.018v1.856
			c0,1.321,0.051,5.171,0.085,5.499H60.929z M68.765,41.704c-0.172-0.241-5.343-5.568-6.083-6.394
			c0.293-0.274,5.207-5.12,5.603-5.567l0.997,1.135c-0.653,0.618-3.763,3.401-4.674,4.313c0.533,0.652,4.64,4.675,5.293,5.311
			L68.765,41.704z"/>
		<path fill="#3F51B5" stroke="#3F51B5" stroke-width="0.5" stroke-miterlimit="10" d="M78.048,37.219
			c0,1.461,0.051,4.073,0.068,4.416H76.5c0.034-0.635,0.052-4.055,0.052-4.433V35.62c0-0.258-0.052-3.866-0.084-4.21h1.666
			c-0.035,0.258-0.085,2.474-0.085,4.228L78.048,37.219L78.048,37.219z"/>
		<path fill="#3F51B5" stroke="#3F51B5" stroke-width="0.5" stroke-miterlimit="10" d="M85.164,31.135
			c0.876,0.087,8.128,0.344,8.371,0.344v0.035c-0.57,0.738-6.619,8.901-6.756,9.09c0.842,0,5.998-0.053,6.358-0.103l-0.052,1.289
			c-0.326,0-8.059-0.156-8.798-0.156v-0.032c0.652-0.688,6.53-8.68,6.875-9.143c-0.602,0-5.773-0.069-6.066-0.069L85.164,31.135z"/>
		<path fill="#3F51B5" stroke="#3F51B5" stroke-width="0.5" stroke-miterlimit="10" d="M100.632,34.864
			c0,2.372,0.138,3.455,0.722,4.417c0.601,0.979,1.478,1.41,2.595,1.41c1.34,0,2.114-0.619,2.631-1.394
			c0.721-1.063,0.738-2.817,0.738-5.12v-0.498c0-1.015-0.068-1.873-0.087-2.424h1.565c0,0.327,0.017,1.29,0.017,2.44v0.688
			c0,2.802-0.206,4.571-1.375,5.929c-0.929,1.065-2.028,1.563-3.694,1.563c-0.843,0-2.474-0.122-3.574-1.752
			c-0.721-1.082-1.032-2.233-1.032-5.774V33.56c0-0.67,0.019-1.736,0.019-2.081h1.545c-0.017,0.379-0.068,1.066-0.068,2.405V34.864
			L100.632,34.864z"/>
		<path fill="#3F51B5" stroke="#3F51B5" stroke-width="0.5" stroke-miterlimit="10" d="M115.431,41.634
			c0.085-1.1,0.515-9.295,0.584-10.808h0.085c0.446,0.48,7.612,7.699,8.093,8.163c0-0.413,0.035-7.167,0.053-7.647l1.53,0.069
			c-0.069,0.876-0.36,6.856-0.433,10.534h-0.066c-0.447-0.396-7.974-7.905-8.164-8.11h-0.033c0.033,0.275-0.086,7.423-0.068,7.904
			L115.431,41.634z"/>
		<path fill="#3F51B5" stroke="#3F51B5" stroke-width="0.5" stroke-miterlimit="10" d="M131.175,41.187
			c0.824-1.46,5.293-9.727,5.637-10.292h0.035c1.322,2.08,5.035,8.66,6.049,10.189l-1.395,0.842
			c-0.272-0.55-1.889-3.437-2.043-3.693l-5.31,0.205c-0.206,0.464-1.41,3.007-1.649,3.506L131.175,41.187z M138.925,37.185
			c-0.172-0.326-1.975-3.626-2.131-3.867c-0.224,0.344-1.924,3.798-2.063,4.038L138.925,37.185z"/>
	</g>
</g>
<g>
	<g>
		<g>
			<g>
				<g>
					<line fill="#3F51B5" x1="19.266" y1="22.244" x2="16.785" y2="25.774"/>
					<path fill="#3F51B5" d="M16.784,26.695c-0.183,0-0.367-0.055-0.529-0.167c-0.416-0.293-0.516-0.867-0.224-1.283l2.481-3.531
						c0.293-0.416,0.867-0.515,1.283-0.224c0.417,0.292,0.517,0.867,0.225,1.283l-2.481,3.53
						C17.359,26.558,17.074,26.695,16.784,26.695z"/>
				</g>
				<g>
					<line fill="#3F51B5" x1="23.958" y1="23.901" x2="17.583" y2="32.688"/>
					<path fill="#3F51B5" d="M17.582,33.608c-0.187,0-0.376-0.057-0.539-0.175c-0.413-0.299-0.504-0.875-0.206-1.286l6.375-8.787
						c0.299-0.412,0.875-0.504,1.287-0.204c0.412,0.299,0.503,0.874,0.205,1.286l-6.375,8.786
						C18.149,33.477,17.867,33.608,17.582,33.608z"/>
				</g>
				<g>
					<line fill="#3F51B5" x1="15.047" y1="30.004" x2="20.119" y2="36.61"/>
					<path fill="#3F51B5" d="M20.12,37.531c-0.276,0-0.55-0.124-0.731-0.359l-5.072-6.607c-0.31-0.404-0.234-0.982,0.169-1.292
						c0.404-0.309,0.982-0.233,1.292,0.17l5.072,6.607c0.31,0.403,0.233,0.981-0.17,1.291C20.513,37.469,20.315,37.531,20.12,37.531
						z"/>
				</g>
				<g>
					<line fill="#3F51B5" x1="24.179" y1="40.856" x2="28.276" y2="46.194"/>
					<path fill="#3F51B5" d="M28.278,47.115c-0.276,0-0.55-0.124-0.731-0.359l-4.097-5.339c-0.31-0.403-0.234-0.981,0.17-1.291
						s0.981-0.234,1.291,0.17l4.098,5.338c0.31,0.403,0.233,0.981-0.17,1.291C28.67,47.053,28.473,47.115,28.278,47.115z"/>
				</g>
				<g>
					<path fill="#3F51B5" d="M27.102,55.042c-3.879,0-5.06-0.398-5.257-0.479c-0.472-0.191-0.7-0.729-0.508-1.199
						c0.19-0.473,0.728-0.699,1.2-0.509l0,0c0.003,0,1.062,0.345,4.565,0.345c9.985,0,17.446-9.392,17.446-17.788
						c0-5.574-1.932-10.103-6.082-14.251c-0.935-0.936-1.864-1.364-2.77-1.279c-1.615,0.156-2.786,1.866-2.797,1.883L28.55,28.25
						c-0.373,0.596-0.461,1.118-0.255,1.573c0.281,0.619,0.986,0.944,1.17,0.983h8.311c0.434,0,0.81-0.22,1.005-0.59
						c0.226-0.428,0.167-0.95-0.164-1.434c-0.056-0.08-0.328-0.451-1.673-2.166c-0.313-0.4-0.244-0.979,0.156-1.293
						c0.399-0.313,0.979-0.244,1.293,0.156c1.529,1.948,1.691,2.187,1.744,2.265c0.718,1.048,0.82,2.294,0.273,3.331
						c-0.513,0.97-1.522,1.572-2.635,1.572h-8.341c-0.707,0-2.04-0.638-2.704-1.838c-0.343-0.62-0.764-1.908,0.274-3.563
						l4.363-6.508c0.064-0.097,1.648-2.441,4.136-2.689c1.479-0.146,2.917,0.46,4.264,1.808c4.517,4.517,6.621,9.459,6.621,15.554
						c0,4.525-2.006,9.457-5.366,13.192C37.288,52.756,32.345,55.042,27.102,55.042z"/>
				</g>
				<g>
					<path fill="#3F51B5" d="M23.163,37.531h-3.436c-0.508,0-0.921-0.412-0.921-0.921s0.413-0.921,0.921-0.921h3.436
						c0.039-0.01,0.218-0.108,0.29-0.287c0.108-0.27-0.105-0.63-0.243-0.821c-0.701-0.976-0.971-1.328-0.974-1.332
						c-0.31-0.403-0.234-0.981,0.168-1.291c0.403-0.311,0.982-0.235,1.292,0.169c0.011,0.014,0.286,0.372,1.009,1.38
						c0.91,1.266,0.622,2.279,0.37,2.771C24.697,37.015,23.91,37.531,23.163,37.531z"/>
				</g>
				<g>
					<line fill="#3F51B5" x1="28.153" y1="36.61" x2="40.118" y2="36.61"/>
					<path fill="#3F51B5" d="M40.118,37.531H28.153c-0.508,0-0.92-0.412-0.92-0.921s0.412-0.921,0.92-0.921h11.965
						c0.509,0,0.921,0.412,0.921,0.921S40.627,37.531,40.118,37.531z"/>
				</g>
				<g>
					<line fill="#3F51B5" x1="6.98" y1="36.61" x2="13.942" y2="36.61"/>
					<path fill="#3F51B5" d="M13.942,37.531H6.98c-0.509,0-0.921-0.412-0.921-0.921s0.412-0.921,0.921-0.921h6.962
						c0.509,0,0.921,0.412,0.921,0.921S14.451,37.531,13.942,37.531z"/>
				</g>
				<g>
					<line fill="#3F51B5" x1="33.82" y1="48.059" x2="33.82" y2="26.049"/>
					<path fill="#3F51B5" d="M33.82,48.98c-0.508,0-0.921-0.412-0.921-0.921V26.049c0-0.509,0.413-0.921,0.921-0.921
						c0.509,0,0.921,0.412,0.921,0.921v22.011C34.741,48.568,34.329,48.98,33.82,48.98z"/>
				</g>
				<g>
					<path fill="#3F51B5" d="M16.05,51.681c-1.483,0-4.108-1.903-6.243-4.526c-1.579-1.939-4.229-5.969-4.229-11.147
						c0-12.405,8.504-21.409,20.222-21.409c2.997,0,4.507,0.503,4.57,0.525c0.481,0.164,0.739,0.688,0.574,1.168
						c-0.164,0.481-0.688,0.738-1.169,0.575c-0.009-0.003-1.326-0.427-3.976-0.427c-10.65,0-18.38,8.229-18.38,19.567
						c0,8.104,7.195,13.832,8.63,13.832c1.197,0,1.945-0.44,2.354-1.387c0.381-0.884,0.381-1.967,0.381-2.614v-9.094
						c0-0.509,0.413-0.921,0.921-0.921c0.509,0,0.921,0.412,0.921,0.921v9.081c0,0.751,0,2.124-0.533,3.357
						C19.603,50.323,18.501,51.681,16.05,51.681z"/>
				</g>
			</g>
		</g>
		<circle fill="#C24728" cx="14.499" cy="42.074" r="2.026"/>
	</g>
</g>
</svg>
