<?xml version="1.0" encoding="utf-8"?>
<!-- Generator: Adobe Illustrator 15.1.0, SVG Export Plug-In . SVG Version: 6.00 Build 0)  -->
<!DOCTYPE svg PUBLIC "-//W3C//DTD SVG 1.1//EN" "http://www.w3.org/Graphics/SVG/1.1/DTD/svg11.dtd">
<svg version="1.1" id="圖層_1" xmlns="http://www.w3.org/2000/svg" xmlns:xlink="http://www.w3.org/1999/xlink" x="0px" y="0px"
	 width="73px" height="91px" viewBox="0 0 73 91" enable-background="new 0 0 73 91" xml:space="preserve">
<g>
	<g>
		<g>
			<path fill="#3F51B5" d="M9.77,83.623c0.023-0.338,0.059-2.307,0.059-3.635v-1.235c0-1.014-0.059-3.251-0.059-3.519h1.166
				c-0.011,0.187-0.058,2.388-0.058,3.402v1.258c0,0.897,0.035,3.506,0.058,3.729H9.77z M15.083,83.552
				c-0.117-0.164-3.624-3.775-4.125-4.334c0.199-0.186,3.53-3.472,3.798-3.774l0.676,0.769c-0.442,0.419-2.552,2.307-3.168,2.924
				c0.36,0.442,3.146,3.168,3.588,3.6L15.083,83.552z"/>
			<path fill="#3F51B5" d="M15.055,83.96l-0.181-0.254c-0.093-0.115-1.09-1.153-1.971-2.07c-0.663-0.69-1.341-1.397-1.766-1.846
				v0.103c0,0.98,0.037,3.507,0.057,3.701l0.03,0.288H9.492l0.019-0.278c0.023-0.338,0.058-2.301,0.058-3.617v-1.235
				c0-0.668-0.025-1.87-0.043-2.685c-0.009-0.422-0.016-0.742-0.016-0.833v-0.26h1.702l-0.017,0.276
				c-0.011,0.182-0.058,2.393-0.058,3.386v0.044c0.907-0.889,3.204-3.159,3.426-3.409l0.195-0.22l1.035,1.178l-0.182,0.172
				c-0.157,0.148-0.522,0.481-0.958,0.877c-0.706,0.642-1.562,1.421-2.03,1.871c0.633,0.677,2.653,2.665,3.411,3.401l0.183,0.179
				L15.055,83.96z M10.041,83.362h0.624c-0.022-0.764-0.047-2.751-0.047-3.468v-1.258c0-0.848,0.031-2.48,0.05-3.142h-0.633
				c0.003,0.146,0.007,0.34,0.012,0.563c0.017,0.818,0.042,2.025,0.042,2.696v1.235C10.088,81.103,10.063,82.684,10.041,83.362z
				 M11.32,79.229c0.38,0.406,1.18,1.238,1.957,2.048c1.006,1.046,1.546,1.611,1.81,1.893l0.4-0.424
				c-0.686-0.671-3.078-3.018-3.426-3.443l-0.148-0.182l0.167-0.166c0.404-0.404,1.413-1.321,2.224-2.059
				c0.307-0.28,0.579-0.527,0.766-0.7l-0.322-0.367C14.061,76.529,11.968,78.596,11.32,79.229z"/>
		</g>
		<g>
			<path fill="#3F51B5" d="M21.376,80.512c0,0.99,0.035,2.761,0.047,2.994h-1.095c0.023-0.431,0.035-2.75,0.035-3.005v-1.072
				c0-0.175-0.035-2.622-0.058-2.854h1.13c-0.023,0.175-0.058,1.677-0.058,2.865V80.512z"/>
			<path fill="#3F51B5" d="M21.696,83.766h-1.642l0.014-0.274c0.023-0.426,0.034-2.729,0.034-2.991v-1.072
				c0-0.218-0.036-2.623-0.057-2.829l-0.027-0.285h1.713l-0.04,0.294c-0.021,0.148-0.056,1.633-0.056,2.831v1.072
				c0,0.993,0.035,2.752,0.046,2.98L21.696,83.766z M20.596,83.246h0.559c-0.015-0.59-0.039-1.92-0.039-2.734v-1.072
				c0-0.886,0.021-2.052,0.042-2.605h-0.583c0.022,0.724,0.046,2.488,0.046,2.594V80.5C20.622,80.728,20.614,82.489,20.596,83.246z"
				/>
		</g>
		<g>
			<path fill="#3F51B5" d="M26.2,76.388c0.594,0.058,5.511,0.233,5.674,0.233v0.023c-0.384,0.501-4.486,6.035-4.579,6.163
				c0.571,0,4.066-0.035,4.311-0.069l-0.036,0.874c-0.221,0-5.464-0.106-5.965-0.106v-0.022c0.443-0.466,4.428-5.884,4.661-6.198
				c-0.408,0-3.915-0.047-4.113-0.047L26.2,76.388z"/>
			<path fill="#3F51B5" d="M31.82,83.871h-0.25c-0.088,0-0.979-0.017-2.048-0.037c-1.612-0.03-3.618-0.068-3.917-0.068h-0.26v-0.364
				l0.072-0.098c0.142-0.151,0.897-1.103,4.337-5.764c-0.541-0.006-1.391-0.016-2.129-0.025c-0.752-0.009-1.391-0.017-1.472-0.017
				h-0.274l0.076-1.396l0.27,0.026c0.568,0.057,5.423,0.231,5.648,0.232l0.26,0v0.348l-0.054,0.094
				c-0.335,0.436-3.295,4.43-4.267,5.742c1.167-0.009,3.563-0.039,3.757-0.064l0.305-0.04L31.82,83.871z M26.13,83.252
				c0.771,0.012,2.196,0.039,3.401,0.062c0.766,0.015,1.439,0.027,1.789,0.033l0.015-0.336c-0.949,0.032-3.671,0.055-4.04,0.055
				h-0.51l0.3-0.413c0.023-0.033,3.257-4.399,4.296-5.788c-1.153-0.039-3.974-0.145-4.937-0.201l-0.017,0.315
				c0.273,0.003,0.714,0.009,1.204,0.015c1.08,0.013,2.395,0.029,2.635,0.029h0.516l-0.484,0.654
				C28.153,80.587,26.757,82.455,26.13,83.252z"/>
		</g>
		<g>
			<path fill="#3F51B5" d="M36.688,78.916c0,1.608,0.093,2.342,0.489,2.994c0.408,0.664,1.001,0.956,1.759,0.956
				c0.908,0,1.433-0.42,1.782-0.944c0.489-0.722,0.501-1.911,0.501-3.472v-0.338c0-0.688-0.047-1.27-0.059-1.643h1.061
				c0,0.221,0.011,0.875,0.011,1.654v0.466c0,1.899-0.139,3.099-0.932,4.019c-0.628,0.723-1.374,1.061-2.504,1.061
				c-0.571,0-1.678-0.082-2.424-1.188c-0.489-0.734-0.699-1.515-0.699-3.916v-0.535c0-0.455,0.012-1.177,0.012-1.41h1.048
				c-0.012,0.256-0.046,0.723-0.046,1.631V78.916z"/>
			<path fill="#3F51B5" d="M38.796,83.929c-1.168,0-2.055-0.438-2.639-1.303c-0.505-0.756-0.744-1.556-0.744-4.061v-0.535
				c0-0.266,0.004-0.623,0.008-0.921c0.002-0.211,0.004-0.393,0.004-0.489v-0.26h1.58l-0.02,0.424
				c-0.014,0.27-0.039,0.72-0.039,1.467v0.664c0,1.64,0.102,2.281,0.452,2.859c0.347,0.566,0.836,0.831,1.537,0.831
				c0.692,0,1.189-0.264,1.566-0.829c0.458-0.675,0.458-1.904,0.458-3.327v-0.338c0-0.464-0.021-0.879-0.039-1.213
				c-0.009-0.16-0.016-0.301-0.021-0.422l-0.008-0.268h1.588l0.003,0.631c0.004,0.317,0.008,0.773,0.008,1.283v0.466
				c0,1.967-0.159,3.217-0.995,4.188C40.805,83.574,39.972,83.929,38.796,83.929z M35.943,76.88c0,0.071-0.001,0.151-0.002,0.235
				c-0.004,0.296-0.008,0.65-0.008,0.915v0.535c0,2.371,0.212,3.105,0.656,3.771c0.724,1.072,1.84,1.072,2.208,1.072
				c1.025,0,1.715-0.29,2.308-0.971c0.734-0.852,0.868-1.965,0.868-3.849v-0.466c0-0.508-0.004-0.961-0.008-1.277l-0.001-0.117
				h-0.531c0.002,0.045,0.004,0.093,0.007,0.143c0.017,0.342,0.04,0.767,0.04,1.241v0.338c0,1.509,0,2.812-0.546,3.617
				c-0.474,0.711-1.128,1.058-1.998,1.058c-0.875,0-1.541-0.363-1.98-1.08c-0.452-0.744-0.528-1.567-0.528-3.13v-0.664
				c0-0.657,0.019-1.088,0.033-1.371H35.943z"/>
		</g>
		<g>
			<path fill="#3F51B5" d="M46.72,83.505c0.059-0.745,0.35-6.302,0.396-7.328h0.058c0.302,0.326,5.161,5.22,5.487,5.534
				c0-0.279,0.023-4.858,0.036-5.184l1.038,0.047c-0.047,0.594-0.245,4.648-0.292,7.142h-0.046c-0.303-0.268-5.406-5.36-5.535-5.499
				h-0.023c0.023,0.187-0.058,5.033-0.045,5.359L46.72,83.505z"/>
			<path fill="#3F51B5" d="M53.697,83.976h-0.399l-0.074-0.065c-0.282-0.25-3.867-3.83-5.123-5.086
				c-0.003,0.484-0.012,1.274-0.027,2.486c-0.013,1.042-0.026,2.12-0.021,2.256l0.01,0.287l-1.622-0.106l0.02-0.262
				c0.059-0.743,0.351-6.327,0.396-7.319l0.011-0.248h0.42l0.077,0.083c0.226,0.244,3.754,3.803,5.039,5.088
				c0.006-1.328,0.022-4.302,0.033-4.571l0.009-0.263l1.568,0.071l-0.021,0.268c-0.049,0.622-0.245,4.696-0.292,7.126L53.697,83.976
				z M46.997,83.264l0.535,0.034c0.002-0.402,0.012-1.156,0.022-1.994c0.015-1.232,0.037-2.918,0.026-3.06l-0.021-0.279l0.393-0.007
				l0.101,0.083c0.167,0.179,3.914,3.916,5.142,5.12c0.056-2.208,0.201-5.308,0.263-6.339l-0.505-0.023
				c-0.012,1.047-0.031,4.68-0.031,4.913v0.611l-0.439-0.424c-0.223-0.214-3.916-3.928-5.132-5.168
				C47.271,78.304,47.072,82.1,46.997,83.264z"/>
		</g>
		<g>
			<path fill="#3F51B5" d="M57.394,83.203c0.56-0.99,3.589-6.594,3.822-6.978h0.023c0.897,1.41,3.414,5.871,4.102,6.909
				l-0.945,0.571c-0.186-0.373-1.281-2.33-1.385-2.504l-3.6,0.139c-0.14,0.315-0.955,2.04-1.119,2.377L57.394,83.203z
				 M62.649,80.489c-0.117-0.222-1.34-2.458-1.445-2.622c-0.151,0.233-1.304,2.575-1.398,2.738L62.649,80.489z"/>
			<path fill="#3F51B5" d="M58.404,84.08L57.041,83.3l0.127-0.226c0.268-0.474,1.103-2.008,1.925-3.519
				c0.914-1.677,1.776-3.261,1.9-3.466l0.076-0.125h0.29l0.099,0.12c0.441,0.692,1.272,2.12,2.075,3.5
				c0.824,1.416,1.676,2.88,2.024,3.405l0.15,0.226l-1.418,0.856l-0.126-0.251c-0.166-0.332-1.027-1.875-1.3-2.355l-3.282,0.126
				c-0.245,0.531-0.919,1.957-1.055,2.237L58.404,84.08z M57.747,83.104l0.431,0.247c0.285-0.6,0.881-1.862,0.995-2.119l0.066-0.147
				l3.915-0.151l0.079,0.131c0.087,0.144,0.913,1.617,1.265,2.274l0.48-0.291c-0.405-0.646-1.13-1.892-1.893-3.202
				c-0.682-1.172-1.385-2.378-1.847-3.132c-0.336,0.608-1.021,1.866-1.688,3.09C58.829,81.129,58.098,82.472,57.747,83.104z
				 M59.346,80.883l0.234-0.408c0.035-0.06,0.212-0.415,0.429-0.849c0.495-0.987,0.881-1.753,0.977-1.901l0.218-0.336l0.217,0.337
				c0.12,0.186,1.386,2.506,1.458,2.641l0.192,0.364L59.346,80.883z M61.209,78.404c-0.204,0.396-0.508,1.003-0.735,1.456
				c-0.086,0.172-0.167,0.332-0.234,0.468l1.982-0.081C61.955,79.754,61.489,78.905,61.209,78.404z"/>
		</g>
	</g>
	<g>
		<g>
			<g>
				<g>
					<line fill="#3F51B5" x1="28.122" y1="19.865" x2="24.622" y2="24.845"/>
					<path fill="#3F51B5" d="M24.621,26.144c-0.258,0-0.519-0.077-0.746-0.236c-0.586-0.413-0.728-1.223-0.315-1.81l3.5-4.98
						c0.413-0.587,1.223-0.727,1.81-0.316c0.588,0.413,0.729,1.223,0.317,1.81l-3.5,4.98C25.432,25.952,25.03,26.144,24.621,26.144z
						"/>
				</g>
				<g>
					<line fill="#3F51B5" x1="34.741" y1="22.203" x2="25.748" y2="34.598"/>
					<path fill="#3F51B5" d="M25.747,35.897c-0.264,0-0.531-0.081-0.761-0.248c-0.582-0.421-0.71-1.233-0.289-1.814l8.993-12.395
						c0.421-0.582,1.234-0.711,1.815-0.289c0.581,0.421,0.709,1.234,0.288,1.814l-8.993,12.395
						C26.545,35.711,26.148,35.897,25.747,35.897z"/>
				</g>
				<g>
					<line fill="#3F51B5" x1="22.171" y1="30.811" x2="29.326" y2="40.132"/>
					<path fill="#3F51B5" d="M29.327,41.431c-0.39,0-0.775-0.175-1.031-0.508l-7.155-9.32c-0.438-0.57-0.33-1.385,0.24-1.822
						c0.57-0.436,1.385-0.329,1.822,0.24l7.155,9.321c0.437,0.569,0.329,1.385-0.24,1.822
						C29.881,41.343,29.603,41.431,29.327,41.431z"/>
				</g>
				<g>
					<line fill="#3F51B5" x1="35.053" y1="46.121" x2="40.833" y2="53.652"/>
					<path fill="#3F51B5" d="M40.834,54.951c-0.39,0-0.775-0.174-1.031-0.508l-5.78-7.531c-0.438-0.569-0.33-1.385,0.24-1.822
						c0.57-0.436,1.385-0.33,1.822,0.239l5.78,7.531c0.437,0.569,0.329,1.385-0.239,1.822
						C41.389,54.863,41.111,54.951,40.834,54.951z"/>
				</g>
				<g>
					<path fill="#3F51B5" d="M39.176,66.132c-5.473,0-7.139-0.562-7.417-0.675c-0.665-0.27-0.986-1.027-0.716-1.692
						c0.269-0.666,1.026-0.986,1.692-0.717l0,0c0.004,0,1.497,0.485,6.441,0.485c14.086,0,24.61-13.249,24.61-25.093
						c0-7.864-2.725-14.252-8.579-20.104c-1.32-1.319-2.63-1.923-3.908-1.803c-2.279,0.219-3.93,2.632-3.946,2.656l-6.135,9.148
						c-0.526,0.84-0.65,1.577-0.359,2.22c0.396,0.873,1.391,1.332,1.65,1.387h11.723c0.613,0,1.143-0.311,1.418-0.833
						c0.319-0.604,0.234-1.34-0.231-2.021c-0.078-0.114-0.462-0.638-2.36-3.056c-0.442-0.564-0.344-1.381,0.22-1.824
						c0.563-0.443,1.381-0.344,1.824,0.22c2.157,2.749,2.386,3.084,2.461,3.195c1.012,1.479,1.156,3.236,0.384,4.699
						c-0.723,1.369-2.146,2.219-3.717,2.219H42.468c-0.997,0-2.877-0.901-3.813-2.593c-0.484-0.875-1.078-2.692,0.386-5.026
						l6.155-9.181c0.09-0.136,2.327-3.444,5.835-3.794c2.087-0.206,4.115,0.649,6.015,2.55c6.372,6.371,9.34,13.344,9.34,21.942
						c0,6.384-2.83,13.341-7.571,18.612C53.546,62.908,46.572,66.132,39.176,66.132z"/>
				</g>
				<g>
					<path fill="#3F51B5" d="M33.619,41.431H18.152c-0.717,0-1.299-0.582-1.299-1.299s0.582-1.299,1.299-1.299h15.467
						c0.055-0.014,0.308-0.154,0.409-0.404c0.153-0.38-0.148-0.89-0.342-1.159c-0.989-1.377-1.37-1.874-1.375-1.879
						c-0.437-0.569-0.33-1.384,0.239-1.821c0.568-0.438,1.384-0.332,1.822,0.237c0.016,0.021,0.403,0.526,1.424,1.947
						c1.283,1.786,0.877,3.216,0.522,3.91C35.784,40.704,34.673,41.431,33.619,41.431z"/>
				</g>
				<g>
					<line fill="#3F51B5" x1="40.66" y1="40.132" x2="57.539" y2="40.132"/>
					<path fill="#3F51B5" d="M57.539,41.431H40.66c-0.718,0-1.299-0.582-1.299-1.299s0.582-1.299,1.299-1.299h16.878
						c0.717,0,1.299,0.582,1.299,1.299S58.256,41.431,57.539,41.431z"/>
				</g>
				<g>
					<line fill="#3F51B5" x1="48.653" y1="56.283" x2="48.653" y2="25.232"/>
					<path fill="#3F51B5" d="M48.653,57.582c-0.718,0-1.299-0.582-1.299-1.299v-31.05c0-0.718,0.582-1.299,1.299-1.299
						c0.717,0,1.299,0.582,1.299,1.299v31.05C49.952,57,49.371,57.582,48.653,57.582z"/>
				</g>
				<g>
					<path fill="#3F51B5" d="M23.586,61.393c-2.092,0-5.796-2.686-8.807-6.385c-2.228-2.737-5.966-8.42-5.966-15.726
						c0-17.5,11.997-30.203,28.526-30.203c4.228,0,6.359,0.71,6.447,0.74c0.679,0.231,1.042,0.97,0.811,1.649
						c-0.231,0.679-0.97,1.041-1.649,0.811c-0.012-0.004-1.87-0.602-5.609-0.602c-15.024,0-25.928,11.61-25.928,27.604
						c0,11.432,10.151,19.512,12.175,19.512c1.689,0,2.743-0.622,3.32-1.957c0.538-1.245,0.538-2.774,0.538-3.688V40.322
						c0-0.718,0.582-1.299,1.299-1.299c0.717,0,1.299,0.582,1.299,1.299v12.811c0,1.059,0,2.997-0.751,4.736
						C28.597,59.476,27.043,61.393,23.586,61.393z"/>
				</g>
			</g>
		</g>
		<circle fill="#E83828" cx="21.396" cy="47.84" r="2.858"/>
	</g>
</g>
</svg>
