<?xml version="1.0" encoding="utf-8"?>
<!-- Generator: Adobe Illustrator 15.1.0, SVG Export Plug-In . SVG Version: 6.00 Build 0)  -->
<!DOCTYPE svg PUBLIC "-//W3C//DTD SVG 1.1//EN" "http://www.w3.org/Graphics/SVG/1.1/DTD/svg11.dtd">
<svg version="1.1" id="圖層_1" xmlns="http://www.w3.org/2000/svg" xmlns:xlink="http://www.w3.org/1999/xlink" x="0px" y="0px"
	 width="172.116px" height="64.609px" viewBox="0 0 172.116 64.609" enable-background="new 0 0 172.116 64.609"
	 xml:space="preserve">
<g>
	<g>
		<g>
			<path fill="#3F51B5" stroke="#3F51B5" stroke-width="0.5" stroke-miterlimit="10" d="M60.929,41.807
				c0.034-0.498,0.086-3.403,0.086-5.361v-1.822c0-1.496-0.086-4.795-0.086-5.19h1.719c-0.017,0.275-0.085,3.522-0.085,5.018v1.856
				c0,1.322,0.051,5.171,0.085,5.499H60.929z M68.765,41.704c-0.172-0.241-5.343-5.568-6.083-6.394
				c0.293-0.274,5.207-5.12,5.603-5.567l0.997,1.135c-0.653,0.618-3.763,3.401-4.674,4.313c0.533,0.653,4.64,4.675,5.293,5.311
				L68.765,41.704z"/>
			<path fill="#3F51B5" stroke="#3F51B5" stroke-width="0.5" stroke-miterlimit="10" d="M78.048,37.219
				c0,1.46,0.051,4.073,0.068,4.416h-1.616c0.034-0.635,0.052-4.055,0.052-4.433V35.62c0-0.258-0.052-3.866-0.084-4.21h1.666
				c-0.035,0.258-0.085,2.474-0.085,4.227V37.219z"/>
			<path fill="#3F51B5" stroke="#3F51B5" stroke-width="0.5" stroke-miterlimit="10" d="M85.164,31.135
				c0.876,0.086,8.128,0.343,8.37,0.343v0.035c-0.569,0.739-6.618,8.902-6.755,9.09c0.842,0,5.998-0.052,6.358-0.102l-0.051,1.289
				c-0.327,0-8.059-0.156-8.799-0.156v-0.033c0.652-0.688,6.53-8.679,6.875-9.142c-0.602,0-5.774-0.07-6.067-0.07L85.164,31.135z"/>
			<path fill="#3F51B5" stroke="#3F51B5" stroke-width="0.5" stroke-miterlimit="10" d="M100.632,34.864
				c0,2.372,0.138,3.455,0.722,4.417c0.601,0.98,1.478,1.41,2.595,1.41c1.339,0,2.114-0.619,2.63-1.393
				c0.721-1.064,0.739-2.818,0.739-5.12v-0.499c0-1.014-0.069-1.873-0.087-2.423h1.566c0,0.327,0.016,1.29,0.016,2.44v0.688
				c0,2.801-0.206,4.571-1.375,5.928c-0.928,1.066-2.028,1.564-3.694,1.564c-0.843,0-2.474-0.122-3.574-1.752
				c-0.722-1.082-1.033-2.234-1.033-5.775v-0.789c0-0.67,0.019-1.736,0.019-2.081h1.545c-0.017,0.379-0.068,1.067-0.068,2.406
				V34.864z"/>
			<path fill="#3F51B5" stroke="#3F51B5" stroke-width="0.5" stroke-miterlimit="10" d="M115.431,41.634
				c0.085-1.1,0.515-9.295,0.584-10.808h0.085c0.446,0.48,7.612,7.699,8.093,8.163c0-0.413,0.035-7.167,0.052-7.647l1.531,0.069
				c-0.07,0.876-0.361,6.856-0.432,10.534h-0.067c-0.447-0.395-7.974-7.905-8.164-8.11h-0.033c0.033,0.275-0.087,7.423-0.069,7.904
				L115.431,41.634z"/>
			<path fill="#3F51B5" stroke="#3F51B5" stroke-width="0.5" stroke-miterlimit="10" d="M131.176,41.187
				c0.824-1.46,5.292-9.726,5.636-10.292h0.035c1.322,2.08,5.035,8.66,6.049,10.19l-1.394,0.842
				c-0.273-0.55-1.889-3.437-2.043-3.694l-5.31,0.205c-0.206,0.464-1.41,3.007-1.649,3.506L131.176,41.187z M138.926,37.185
				c-0.172-0.326-1.976-3.626-2.132-3.867c-0.223,0.344-1.923,3.798-2.062,4.038L138.926,37.185z"/>
		</g>
	</g>
	<g>
		<g>
			<g>
				<g>
					<g>
						
							<line fill="#3F51B5" stroke="#3F51B5" stroke-width="0.25" stroke-miterlimit="10" x1="19.266" y1="22.243" x2="16.785" y2="25.773"/>
						<path fill="#3F51B5" stroke="#3F51B5" stroke-width="0.25" stroke-miterlimit="10" d="M16.784,26.694
							c-0.183,0-0.367-0.055-0.53-0.167c-0.415-0.292-0.515-0.867-0.223-1.283l2.48-3.531c0.292-0.416,0.868-0.515,1.283-0.224
							c0.417,0.293,0.517,0.868,0.225,1.284l-2.48,3.53C17.359,26.558,17.074,26.694,16.784,26.694z"/>
					</g>
					<g>
						
							<line fill="#3F51B5" stroke="#3F51B5" stroke-width="0.25" stroke-miterlimit="10" x1="23.958" y1="23.901" x2="17.583" y2="32.688"/>
						<path fill="#3F51B5" stroke="#3F51B5" stroke-width="0.25" stroke-miterlimit="10" d="M17.582,33.608
							c-0.186,0-0.375-0.057-0.539-0.176c-0.413-0.298-0.503-0.875-0.205-1.287l6.375-8.787c0.299-0.412,0.875-0.504,1.287-0.204
							c0.412,0.298,0.502,0.875,0.204,1.285l-6.375,8.787C18.148,33.477,17.867,33.608,17.582,33.608z"/>
					</g>
					<g>
						
							<line fill="#3F51B5" stroke="#3F51B5" stroke-width="0.25" stroke-miterlimit="10" x1="15.047" y1="30.003" x2="20.119" y2="36.61"/>
						<path fill="#3F51B5" stroke="#3F51B5" stroke-width="0.25" stroke-miterlimit="10" d="M20.12,37.532
							c-0.276,0-0.55-0.125-0.731-0.36l-5.072-6.607c-0.311-0.403-0.234-0.982,0.169-1.292c0.404-0.31,0.983-0.233,1.292,0.17
							l5.071,6.607c0.309,0.404,0.233,0.981-0.17,1.292C20.513,37.469,20.315,37.532,20.12,37.532z"/>
					</g>
					<g>
						
							<line fill="#3F51B5" stroke="#3F51B5" stroke-width="0.25" stroke-miterlimit="10" x1="24.179" y1="40.856" x2="28.277" y2="46.194"/>
						<path fill="#3F51B5" stroke="#3F51B5" stroke-width="0.25" stroke-miterlimit="10" d="M28.278,47.116
							c-0.277,0-0.55-0.124-0.731-0.36l-4.097-5.338c-0.31-0.404-0.235-0.982,0.169-1.292c0.405-0.309,0.982-0.233,1.292,0.17
							l4.097,5.339c0.309,0.403,0.233,0.981-0.17,1.291C28.671,47.053,28.473,47.116,28.278,47.116z"/>
					</g>
					<g>
						<path fill="#3F51B5" stroke="#3F51B5" stroke-width="0.25" stroke-miterlimit="10" d="M27.102,55.042
							c-3.88,0-5.061-0.398-5.258-0.479c-0.472-0.191-0.699-0.728-0.508-1.199c0.191-0.472,0.728-0.698,1.2-0.507l0,0
							c0.003,0,1.061,0.343,4.566,0.343c9.985,0,17.446-9.391,17.446-17.788c0-5.574-1.933-10.103-6.082-14.251
							c-0.936-0.935-1.865-1.364-2.771-1.279c-1.615,0.156-2.786,1.867-2.797,1.883l-4.348,6.486
							c-0.374,0.595-0.462,1.117-0.256,1.573c0.281,0.619,0.986,0.944,1.17,0.984h8.31c0.435,0,0.811-0.221,1.005-0.591
							c0.227-0.428,0.167-0.95-0.163-1.433c-0.057-0.081-0.329-0.452-1.673-2.166c-0.314-0.4-0.245-0.979,0.156-1.293
							c0.399-0.314,0.979-0.244,1.293,0.156c1.528,1.948,1.691,2.186,1.745,2.265c0.717,1.048,0.82,2.294,0.272,3.331
							c-0.512,0.97-1.521,1.573-2.635,1.573h-8.34c-0.707,0-2.04-0.64-2.704-1.838c-0.343-0.621-0.763-1.908,0.273-3.563
							l4.364-6.508c0.063-0.097,1.649-2.441,4.136-2.689c1.479-0.146,2.917,0.459,4.264,1.808c4.517,4.516,6.621,9.459,6.621,15.554
							c0,4.525-2.005,9.458-5.366,13.194C37.29,52.756,32.345,55.042,27.102,55.042z"/>
					</g>
					<g>
						<path fill="#3F51B5" stroke="#3F51B5" stroke-width="0.25" stroke-miterlimit="10" d="M23.163,37.532H12.199
							c-0.509,0-0.921-0.413-0.921-0.922c0-0.508,0.412-0.92,0.921-0.92h10.964c0.039-0.01,0.218-0.109,0.29-0.287
							c0.109-0.27-0.104-0.631-0.243-0.822c-0.7-0.977-0.971-1.329-0.974-1.333c-0.31-0.403-0.233-0.982,0.169-1.292
							c0.403-0.31,0.982-0.234,1.292,0.169c0.012,0.014,0.286,0.372,1.009,1.38c0.91,1.266,0.622,2.28,0.37,2.771
							C24.697,37.016,23.91,37.532,23.163,37.532z"/>
					</g>
					<g>
						
							<line fill="#3F51B5" stroke="#3F51B5" stroke-width="0.25" stroke-miterlimit="10" x1="28.154" y1="36.61" x2="40.119" y2="36.61"/>
						<path fill="#3F51B5" stroke="#3F51B5" stroke-width="0.25" stroke-miterlimit="10" d="M40.119,37.532H28.154
							c-0.509,0-0.921-0.413-0.921-0.922c0-0.508,0.413-0.92,0.921-0.92h11.965c0.509,0,0.921,0.412,0.921,0.92
							C41.04,37.119,40.627,37.532,40.119,37.532z"/>
					</g>
					<g>
						
							<line fill="#3F51B5" stroke="#3F51B5" stroke-width="0.25" stroke-miterlimit="10" x1="33.82" y1="48.059" x2="33.82" y2="26.048"/>
						<path fill="#3F51B5" stroke="#3F51B5" stroke-width="0.25" stroke-miterlimit="10" d="M33.82,48.98
							c-0.509,0-0.921-0.413-0.921-0.921V26.048c0-0.509,0.413-0.921,0.921-0.921c0.508,0,0.92,0.413,0.92,0.921v22.011
							C34.741,48.568,34.328,48.98,33.82,48.98z"/>
					</g>
					<g>
						<path fill="#3F51B5" stroke="#3F51B5" stroke-width="0.25" stroke-miterlimit="10" d="M16.05,51.682
							c-1.483,0-4.108-1.903-6.243-4.526c-1.58-1.94-4.229-5.969-4.229-11.148c0-12.405,8.505-21.41,20.222-21.41
							c2.997,0,4.508,0.503,4.57,0.525c0.481,0.164,0.739,0.687,0.575,1.169c-0.164,0.481-0.688,0.737-1.169,0.575
							c-0.009-0.004-1.325-0.427-3.976-0.427c-10.65,0-18.38,8.23-18.38,19.567c0,8.105,7.195,13.832,8.63,13.832
							c1.197,0,1.944-0.44,2.354-1.387c0.381-0.883,0.381-1.968,0.381-2.614v-9.094c0-0.508,0.413-0.921,0.921-0.921
							c0.509,0,0.921,0.413,0.921,0.921v9.082c0,0.75,0,2.124-0.532,3.356C19.603,50.323,18.501,51.682,16.05,51.682z"/>
					</g>
				</g>
			</g>
			<circle fill="#C24728" cx="14.498" cy="42.074" r="2.026"/>
		</g>
	</g>
</g>
</svg>
